# xmcd
#
# Track frame offsets: 
#        182
#        13547
#        24332
#        37417
#        49900
#        63780
#        77317
#        88432
#        95980
#        108030
#        118960
#        129642
#        142112
#        152120
#        163032
#        175017
#        184575
#        194147
#        205425
#        216875
#        228705
#        241447
#
# Disc length: 3375 seconds
#
# Revision: 0
# Processed by: cddbd v1.5.1PL0 Copyright (c) Steve Scherf et al.
# Submitted via: ExactAudioCopy v0.95a4
#
DISCID=460d2d16
DTITLE=Jerry Lee Lewis - The Locust Years - Disc 5
DYEAR=1900
DGENRE=Country
TTITLE0=Don't Let Me Cross Over (& Linda Gail Lewis)
TTITLE1=Born To Lose
TTITLE2=You Belong To Me
TTITLE3=Oh Lonesome Me
TTITLE4=Sweet Dreams
TTITLE5=Cold Cold Heart
TTITLE6=Fraulein
TTITLE7=Why Don't You Love Me (Like You Used To Do)
TTITLE8=Four Walls
TTITLE9=It Makes No Difference Now
TTITLE10=I Love You Because
TTITLE11=I'm So Lonesome I Could Cry
TTITLE12=Jambalaya
TTITLE13=More And More
TTITLE14=One Has My Name (The Other Has My Heart)
TTITLE15=Burning Memories
TTITLE16=Mom And Dad's Waltz
TTITLE17=Pick Me Up On Your Way Down
TTITLE18=Heartaches By The Number
TTITLE19=I Can't Stop Loving You
TTITLE20=My Blue Heaven
TTITLE21=I Wonder Where You Are Tonight
EXTD=
EXTT0=
EXTT1=
EXTT2=
EXTT3=
EXTT4=
EXTT5=
EXTT6=
EXTT7=
EXTT8=
EXTT9=
EXTT10=
EXTT11=
EXTT12=
EXTT13=
EXTT14=
EXTT15=
EXTT16=
EXTT17=
EXTT18=
EXTT19=
EXTT20=
EXTT21=
PLAYORDER=
